/* XPM */
static char *bigger[] = {
/* columns rows colors chars-per-pixel */
"25 22 33 1 ",
"  c None",
". c #5277C3",
"X c #5278C3",
"o c #5378C3",
"O c #557BC5",
"+ c #557CC6",
"@ c #567CC6",
"# c #567DC6",
"$ c #577EC6",
"% c #577EC7",
"& c #5880C7",
"* c #5981C8",
"= c #5C87CB",
"- c #5F8BCC",
"; c #608CCE",
": c #618DCE",
"> c #6594D1",
", c #6A9BD5",
"< c #6C9DD6",
"1 c #6C9ED6",
"2 c #6C9FD6",
"3 c #6DA0D7",
"4 c #71A6DA",
"5 c #76ADDE",
"6 c #76AEDE",
"7 c #79B2E0",
"8 c #79B3E0",
"9 c #7AB4E1",
"0 c #7BB4E1",
"q c #7CB7E2",
"w c #7CB7E3",
"e c #7DB8E3",
"r c #7EBAE4",
/* pixels */
"      ..    rr   r       ",
"      ..    rr  rr       ",
"      ...    rrrrr       ",
"       ...   rrrrr       ",
"    ........O2err        ",
"   ..........=6rr    .   ",
"               rrr  ..   ",
"       rr      rrr ...   ",
"      rrr       rq>X.    ",
"     rrr        r4$X...  ",
"rrrrrrrr         :X..... ",
"rrrrrr7<         ....... ",
"   rre3$        ...      ",
"   rr9-o.       .X       ",
"   rr $..      *$O       ",
"   rr  ...2rrrr667rrrr   ",
"   r    ..:7rrrrrrrrr    ",
"       ...$,rrrrrrrrr    ",
"       .....   rrr       ",
"      ... ..    rr       ",
"      ..  ...   rr       ",
"                         "
};
